<svg id="Capa_1" data-name="Capa 1" xmlns="http://www.w3.org/2000/svg" viewBox="0 0 511.99 511.99"><defs><style>.cls-1{fill:#e77d42;}</style></defs><path class="cls-1" d="M148,379.31c-22.37-1.14-22-32.6,0-33.7,62.16.22,226.14.06,290.28.11a37.28,37.28,0,0,0,36.5-29L511.21,159a30.32,30.32,0,0,0-29.42-37.13c-25.8,0-244.84-1-357-1.44L107,54.4A36.32,36.32,0,0,0,72,27.62H15a15,15,0,1,0,0,30H72a6.24,6.24,0,0,1,6,4.6L146.3,315.64a46.85,46.85,0,0,0-45.16,47.64A47.09,47.09,0,0,0,148,409.33h21.88a52.53,52.53,0,1,0,94.9,0h94.77a52.53,52.53,0,1,0,94.52-.8,15,15,0,0,0-4.79-29.22Zm91.85,52.53a22.52,22.52,0,1,1-22.54-22.51h0A22.54,22.54,0,0,1,239.85,431.84ZM407,454.35a22.51,22.51,0,0,1-.36-45h.73a22.51,22.51,0,0,1-.37,45ZM481.9,152a.23.23,0,0,1,.06.25l-15.35,66.46h-52l8.85-67,58.18.23a.23.23,0,0,1,.23.11ZM327.18,315.7v-67h53.23l-8.85,67Zm-74.43,0-8.91-67h53.32v67Zm-69.08,0h0a8.13,8.13,0,0,1-7.83-6l-16.45-61h54.22l8.91,67Zm56.17-97-9-67.84,66.34.27v67.57Zm87.34,0V151.22l66.05.26-8.86,67.19Zm-126.66-68,9,67.95H151.24l-18.38-68.23Zm237.76,165H401.84l8.84-67h49l-14.14,61.25A7.42,7.42,0,0,1,438.28,315.7Z"/></svg>