<svg id="Capa_1" data-name="Capa 1" xmlns="http://www.w3.org/2000/svg" viewBox="0 0 511.99 511.99"><defs><style>.cls-1{fill:#e77d42;}</style></defs><path class="cls-1" d="M490.26,349.57A14.57,14.57,0,0,0,504,335c0-42-33.71-74.9-76.75-74.9H413.07l-17.39-82.51a47.37,47.37,0,0,0-18.77-90.84H309.66a14.59,14.59,0,0,0-14.58,14.59v18.18H259.25a14.6,14.6,0,0,0,0,29.19h35.83v18.18a14.59,14.59,0,0,0,14.58,14.59h6.47a81.64,81.64,0,0,0-19.37,52.84v83a.77.77,0,0,1-.77.78H237.11a.77.77,0,0,1-.74-.56L220.49,263.9a30,30,0,0,0,22.25-29,59.77,59.77,0,0,0-59.67-59.74H51.72a44.88,44.88,0,0,0-6.25,89.31A112.66,112.66,0,0,0,7.82,348.58V394a14.59,14.59,0,0,0,14.58,14.6H35a74,74,0,0,0,145.15,0H358.49a74,74,0,1,0,131.77-59.05ZM472.5,320.42H439.68a73.86,73.86,0,0,0-23.86,1.07V289.31h11.47c21.35,0,39,12.85,45.21,31.11ZM324.24,116h52.67a18.18,18.18,0,0,1,0,36.35H324.24Zm-87.13,231.4H296a30,30,0,0,0,29.93-30v-83A52.79,52.79,0,0,1,367,182.91l19.67,93.33v58.52a74.23,74.23,0,0,0-28.18,44.66H213.56c-6.81-52.36-50.05-91.54-104-91.54-24.07,0-45.67,7.86-62.72,21.38a83.61,83.61,0,0,1,73.73-44.34h69.85l18,61a30.12,30.12,0,0,0,28.7,21.47Zm-199,32.06c2.55-15.52,9.18-29.53,19.33-40.38,13.24-14.17,31.72-22,52-22,37.6,0,68,26.42,74.5,62.35Zm13.56-143.7a15.69,15.69,0,0,1,0-31.37H183.07a30.57,30.57,0,0,1,30.52,30.55c-.13.6-1.09,1-2.88.82h-159Zm55.87,203.22a45,45,0,0,1-42.43-30.32H150A44.93,44.93,0,0,1,107.59,438.94Zm323.47,0A44.92,44.92,0,1,1,475.93,394,44.94,44.94,0,0,1,431.06,438.94Z"/><ellipse class="cls-1" cx="431.06" cy="394.02" rx="14.67" ry="14.69"/><path class="cls-1" d="M22.09,132.85H152.83a14.6,14.6,0,0,0,0-29.19H22.09a14.6,14.6,0,0,0,0,29.19Z"/><path class="cls-1" d="M70.52,73H202.39a14.6,14.6,0,0,0,0-29.19H70.52a14.6,14.6,0,0,0,0,29.19Z"/></svg>