<svg id="Capa_1" data-name="Capa 1" xmlns="http://www.w3.org/2000/svg" viewBox="0 0 511.99 511.99"><defs><style>.cls-1{fill:#e77d42;}</style></defs><path class="cls-1" d="M511.92,429.77l-9-97.94a37.16,37.16,0,0,0-37.18-33.93H450.6a38.42,38.42,0,0,0-30.39-30.39V242.12a28.43,28.43,0,0,0,24.63-32.53l-6.63-43.36a11.79,11.79,0,0,0-11.72-10.07H398.94a11.8,11.8,0,0,0-11.72,10.07l-6.63,43.36a28.43,28.43,0,0,0,24.62,32.53v25.39a38.42,38.42,0,0,0-30.38,30.39H358.78V210.3a7.5,7.5,0,1,0-15,0v18.84l-40.91,14.38a1.55,1.55,0,0,1-1,0l-40.71-14.37s0-67.46,0-67.73h82.61c0,.27,0,.54,0,.81V175.3a7.5,7.5,0,0,0,15,0V162.23a54.31,54.31,0,0,0-.77-9,7.57,7.57,0,0,0-.18-1.06A55,55,0,0,0,336.37,118l-6-4.42a.52.52,0,0,1-.22-.42V35.79a13.25,13.25,0,0,0-13.23-13.24H288a13.26,13.26,0,0,0-13.24,13.24v77.39a.51.51,0,0,1-.21.42l-6,4.41c-11.29,8.27-18.56,20.65-21.46,34.14a8.85,8.85,0,0,0-.19,1,55.3,55.3,0,0,0-.77,9V264.62H228.19V206.15a10.58,10.58,0,0,0-13.94-10V133.6a10.13,10.13,0,0,0-7.7-9.89,10.41,10.41,0,0,0-11.72,4.88q-5.45,9.61-10.45,19.2a127.45,127.45,0,0,0-8.08-19.55,14.24,14.24,0,0,0-12.67-7.45h-.07a14.25,14.25,0,0,0-12.66,7.56c-15.62,30-23.93,86.69-20.14,136.27H72.43a11.63,11.63,0,0,0-7,20.91l16.4,12.37H46.2A37.15,37.15,0,0,0,9,331.83l-.82,8.93a7.5,7.5,0,0,0,14.94,1.36L24,333.2A22.23,22.23,0,0,1,46.2,312.9H465.78A22.23,22.23,0,0,1,488,333.2l9,97.93a2.45,2.45,0,0,1-1.11,2.29c-22.88,14.67-53,20-80,14.5V398.74a7.5,7.5,0,0,0-15,0v51.17c-38.29,25.52-95.13,32.19-137.39,14.83V393.66a7.5,7.5,0,0,0-15,0v71.08c-42.21,17.34-99.06,10.71-137.38-14.83V398.74a7.5,7.5,0,0,0-15,0v49.18c-27,5.54-57.11.17-80-14.5A2.47,2.47,0,0,1,15,431.13l4.95-54A7.5,7.5,0,0,0,5,375.76l-4.94,54A17.36,17.36,0,0,0,8,446C35,463.31,70.69,469.29,102.13,462c43.72,29.55,107.23,35.92,153.86,15.9,46.7,20.05,110.22,13.6,153.87-15.9C441.3,469.29,477,463.31,504,446a17.36,17.36,0,0,0,7.95-16.27ZM398.5,222.65a13.47,13.47,0,0,1-3.09-10.79l6.23-40.7h22.15l6.23,40.7a13.45,13.45,0,0,1-13.29,15.48h-8a13.44,13.44,0,0,1-10.2-4.69Zm14.21,59.14a23.52,23.52,0,0,1,22.41,16.11H390.3A23.52,23.52,0,0,1,412.71,281.79ZM289.78,37.55h25.34V68.23H289.78Zm-6.34,88.15a15.6,15.6,0,0,0,6.34-12.52V83.23h25.34v30a15.61,15.61,0,0,0,6.35,12.52c3.43,3,13.31,7.53,19,20.72H264.41c5.75-13.25,15.72-17.81,19-20.72ZM261.12,245.06l35.71,12.6a16.57,16.57,0,0,0,11,0L343.78,245V297.9H267.41l16.4-12.37a11.63,11.63,0,0,0-7-20.91H261.12ZM151.9,264.62c15.36-15.74,35.57-32.26,61.29-50.08v50.08ZM199.25,151.7V206q-19.68,13.92-35.17,27A535.39,535.39,0,0,1,199.25,151.7Zm-35.61-15.31c3.67,7.22,7.42,17.87,10.91,31a514.42,514.42,0,0,0-29.7,76.82C144.29,203.17,151.45,160.64,163.64,136.39ZM108.38,297.9a5,5,0,0,1-3-1L82.51,279.62H266.74l-22.92,17.29a5,5,0,0,1-3,1Z"/></svg>