<svg id="Capa_1" data-name="Capa 1" xmlns="http://www.w3.org/2000/svg" viewBox="0 0 600 600"><defs><style>.cls-1{fill:#fff;}</style></defs><path class="cls-1" d="M300,0c-81.48,0-91.69.35-123.69,1.81s-53.74,6.52-72.82,13.94a147.2,147.2,0,0,0-53.14,34.6,147.07,147.07,0,0,0-34.6,53.14C8.33,122.57,3.26,144.38,1.8,176.31S0,218.52,0,300s.34,91.69,1.8,123.69,6.53,53.74,14,72.82a147.07,147.07,0,0,0,34.6,53.14,147.2,147.2,0,0,0,53.14,34.6c19.08,7.41,40.89,12.49,72.82,13.94S218.52,600,300,600s91.69-.35,123.69-1.81,53.74-6.53,72.82-13.94a153.36,153.36,0,0,0,87.74-87.74c7.41-19.08,12.49-40.89,13.94-72.82S600,381.47,600,300s-.35-91.69-1.81-123.69-6.53-53.74-13.94-72.82a147.2,147.2,0,0,0-34.6-53.14,147.07,147.07,0,0,0-53.14-34.6C477.43,8.33,455.62,3.26,423.69,1.81S381.47,0,300,0Zm0,54.06c80.1,0,89.59.3,121.22,1.74,29.25,1.34,45.14,6.23,55.71,10.33a93,93,0,0,1,34.49,22.44,93.1,93.1,0,0,1,22.45,34.5c4.1,10.57,9,26.45,10.33,55.7,1.44,31.64,1.74,41.13,1.74,121.23s-.3,89.59-1.74,121.22c-1.34,29.25-6.23,45.14-10.33,55.71a99.46,99.46,0,0,1-56.94,56.94c-10.57,4.1-26.46,9-55.71,10.32-31.62,1.45-41.11,1.75-121.22,1.75s-89.6-.3-121.23-1.75c-29.25-1.33-45.13-6.22-55.7-10.32a93.1,93.1,0,0,1-34.5-22.45,93,93,0,0,1-22.44-34.49c-4.11-10.57-9-26.46-10.33-55.71C54.36,389.59,54.05,380.1,54.05,300s.31-89.59,1.75-121.23c1.34-29.25,6.22-45.13,10.33-55.7a93.08,93.08,0,0,1,22.44-34.5,93.08,93.08,0,0,1,34.5-22.44c10.57-4.1,26.45-9,55.7-10.33C210.41,54.36,219.9,54.06,300,54.06Z"/><path class="cls-1" d="M300,400A100,100,0,1,1,400,300,100,100,0,0,1,300,400Zm0-254A154.05,154.05,0,1,0,454.05,300,154,154,0,0,0,300,146Z"/><path class="cls-1" d="M496.14,139.86a36,36,0,1,1-36-36A36,36,0,0,1,496.14,139.86Z"/></svg>