<svg id="Capa_1" data-name="Capa 1" xmlns="http://www.w3.org/2000/svg" viewBox="0 0 193 136"><defs><style>.cls-1{fill:#2d363f;}.cls-2{fill:#fff;}</style></defs><path class="cls-1" d="M78.93,51.24c-.22,6.43-.84,13.88,2.11,19.81,1.58,3.18,6.33.39,4.75-2.78-2.42-4.88-1.53-11.75-1.36-17,.12-3.55-5.39-3.54-5.5,0Z"/><path class="cls-1" d="M26.6,75.08c3,4.3,7.49,8,8,13.5.35,3.5,5.87,3.53,5.51,0-.7-6.9-5-10.87-8.79-16.27-2-2.89-6.79-.14-4.76,2.77Z"/><path class="cls-1" d="M27.21,81.74C33.4,67.2,53.65,60.12,67.81,56.58c13.53-3.39,30-2.43,37.63-16.47C118.79,15.55,69.91.44,66.63,28.53c-.41,3.51,5.1,3.49,5.51,0,.79-6.81,7.58-10.63,14-10s16.2,5.6,16.21,13c0,15.22-19.11,16.47-29.84,18.48A105.83,105.83,0,0,0,42.26,60.55C34.14,64.86,26.17,70.23,22.46,79c-1.38,3.23,3.37,6,4.75,2.78Z"/><path class="cls-1" d="M29.3,39.83c-3.51-5-6.31-10.93-4.12-17.09,2.32-6.55,9-10.37,15.2-12.57C46.3,8.06,53.38,5.93,59.55,8c5.86,1.95,9.44,7.74,9.6,13.74.1,3.54,5.61,3.55,5.51,0A20.57,20.57,0,0,0,64.94,4.41c-8-4.77-17.8-2.44-26,.45-7.51,2.65-14.76,7-18.24,14.48-3.76,8.06-1,16.38,3.86,23.27,2,2.88,6.8.13,4.76-2.78Z"/><path class="cls-1" d="M86.76,86.69c3.6-5.33,7.07-13,.77-17.71-6.75-5.05-18-3.12-25.52-1.11C45.33,72.32,30.84,86.33,28.91,104c-.88,8,2.07,15.71,8.74,20.47,8.09,5.78,17.51,3.72,26.34,1,21-6.46,41.44-10.58,63.42-11.15,20.42-.53,40.59-.71,60.87,2.39,3.47.53,5-4.78,1.47-5.31a299.8,299.8,0,0,0-56.41-2.79c-17.73.65-34.87,1.8-52.15,6.18-5.17,1.31-10.3,2.79-15.39,4.35-5.93,1.81-12.24,4.45-18.53,3.42-13.66-2.24-15-16.89-10.25-27.45a39.5,39.5,0,0,1,23.5-21A45.16,45.16,0,0,1,77,71.59c3.18.15,7.82.26,8.6,4.32.5,2.63-2.24,6-3.62,8-2,3,2.78,5.71,4.76,2.78Z"/><path class="cls-1" d="M24.82,34.64C11.42,30.43-1.51,42.89,0,56.3,1.53,70.05,11.63,80.9,25.8,80.92c3.54,0,3.55-5.5,0-5.5-9.93,0-17.06-6.57-19.62-16C4.74,54.16,4.91,49,8.73,44.83S17.37,38.07,23.36,40c3.39,1.06,4.84-4.25,1.46-5.31Z"/><path class="cls-2" d="M80.18,49.35c-.21,6.43-.83,13.88,2.12,19.81,1.57,3.18,6.32.39,4.75-2.78-2.43-4.88-1.53-11.75-1.36-17,.12-3.55-5.39-3.54-5.51,0Z"/><path class="cls-2" d="M27.86,73.19c3,4.3,7.48,8,8,13.5.35,3.5,5.86,3.53,5.51,0-.7-6.9-5-10.87-8.79-16.28-2-2.88-6.79-.13-4.76,2.78Z"/><path class="cls-2" d="M28.47,79.85c6.19-14.54,26.43-21.62,40.6-25.16,13.53-3.39,30-2.43,37.62-16.48C120,13.66,71.16-1.45,67.89,26.64c-.41,3.51,5.1,3.49,5.5,0,.8-6.81,7.58-10.63,14-10s16.21,5.6,16.22,13C103.61,44.78,84.49,46,73.75,48A106.37,106.37,0,0,0,43.51,58.66C35.4,63,27.43,68.34,23.71,77.07c-1.37,3.23,3.37,6,4.76,2.78Z"/><path class="cls-2" d="M30.56,37.94c-3.51-5-6.31-10.93-4.13-17.09,2.33-6.55,9.06-10.37,15.21-12.57C47.56,6.17,54.64,4,60.8,6.09c5.87,1.95,9.45,7.74,9.61,13.74.1,3.54,5.61,3.55,5.51,0A20.57,20.57,0,0,0,66.2,2.52c-8-4.77-17.8-2.44-26,.45-7.51,2.65-14.76,7-18.25,14.48-3.75,8.06-1,16.38,3.87,23.27,2,2.88,6.8.13,4.76-2.78Z"/><path class="cls-2" d="M88,84.8c3.6-5.33,7.08-13,.78-17.71C82,62,70.8,64,63.26,66c-16.67,4.45-31.17,18.46-33.1,36.1-.87,8,2.08,15.71,8.74,20.47,8.1,5.78,17.52,3.72,26.35,1,21-6.46,41.44-10.58,63.42-11.15,20.42-.53,40.59-.71,60.87,2.39,3.47.53,5-4.78,1.47-5.31a299.8,299.8,0,0,0-56.41-2.79c-17.74.65-34.87,1.79-52.16,6.18-5.17,1.31-10.29,2.79-15.39,4.35-5.92,1.81-12.23,4.45-18.52,3.42-13.66-2.24-15-16.89-10.26-27.45a39.55,39.55,0,0,1,23.51-21,45.12,45.12,0,0,1,16.5-2.49c3.18.14,7.82.26,8.59,4.32.51,2.63-2.23,6-3.61,8-2,3,2.78,5.71,4.75,2.78Z"/><path class="cls-2" d="M26.08,32.75C12.68,28.54-.25,41,1.25,54.41,2.79,68.16,12.88,79,27.06,79c3.54,0,3.55-5.5,0-5.5-9.94,0-17.07-6.57-19.62-16C6,52.27,6.17,47.15,10,42.94s8.64-6.76,14.62-4.88c3.39,1.06,4.84-4.25,1.47-5.31Z"/><path class="cls-1" d="M123.94,121.92c1.51,1.32,3,2.71,4.56,3.94a68.17,68.17,0,0,0,7.31,5.29c7.24,4.19,17.89,2.94,24.1-2.92,4.14-3.9,5.82-8.47,4.67-14a21,21,0,0,0-1.88-5.71,14.37,14.37,0,0,0-8.54-6.67c-1.36-.38-1.56-.61-1.8-1.17l1.11-.26c.69-.19,1.24-.36,1.93-.54a4.06,4.06,0,0,0,2.43-5.9,1.39,1.39,0,0,0-2-.56,13.92,13.92,0,0,0-2.21,2.26,6.46,6.46,0,0,1-3.4,2.35c-.46.1-1,.95-1.45,1.47a4.11,4.11,0,0,1-2.23,1.39c-2.75.62-4.82-1.59-4.46-4.38,0-.18.06-.36.1-.55a6.21,6.21,0,0,0-1.81.54c-1.48.59-2.07.86-1.9,2.77,0,.39.06,1,.14,2,0,.37.13,1.32,0,1.33a1.78,1.78,0,0,1-1.57-1,8.49,8.49,0,0,1-.69-2.47c-.17-1.34-.21-2.69-.31-4-2.38-.09-2.33-.08-3,1.88-.81,2.25-1.59,4.48-3.49,5.51a1.48,1.48,0,0,1-1.73-.08,7.47,7.47,0,0,1-2.67-3.49c-.54.7-.92,1.29-1.39,1.79a7.7,7.7,0,0,1-2.06,1.66,2.6,2.6,0,0,1-2.54-.09s1.06-1.17,1.8-1.8a9.68,9.68,0,0,0,3-6.1,2.67,2.67,0,0,1,.4-1.2,1.49,1.49,0,0,1,1.06-.54,1.38,1.38,0,0,1,.93.73,8.35,8.35,0,0,1,.35,1.68c.35,1.7,1,4.53,2.25,4.66s1.81-2.47,2.26-4.07h0a16.71,16.71,0,0,1-1.89-1,2.25,2.25,0,0,1-.86-2.67,1.93,1.93,0,0,1,3.45-.5c1.12,1.68,2.33,1.55,3.85,1a6,6,0,0,1,1.23-.38c1-.16,1.53.21,1.63,1.21.07.7,0,1.42,0,2.37.13-.22.44-.36,1.43-.86a46.26,46.26,0,0,1,7.3-3.38c1.71-.54,2.55,0,3,1.76a14.49,14.49,0,0,1,.19,2.7,6.44,6.44,0,0,0,1.92-2,5.9,5.9,0,0,1,5.37-2.92,1.39,1.39,0,0,1,1.11.61,8.46,8.46,0,0,1,1.76,3.62h0c1.42-.33,2.83-1.91,4.25-2.72a10.06,10.06,0,0,1,2.58-1c1.87-.45,3.6-.29,4.71,1.78.41-.27.76-.47,1.07-.72,2.2-1.78,4.12-1.55,4.87.72a.58.58,0,0,0,.92.28l.33-.26a2.89,2.89,0,0,1,4.59,1.71c.14.75.12,1.54.19,2.31.08.93.16,1.86.27,2.78.14,1.09.49,2.36,1.62,2.68a8,8,0,0,0,1.44.25,2.41,2.41,0,0,1-2.41,1.17,2.7,2.7,0,0,1-2.36-1.63,11.41,11.41,0,0,1-.9-5.26c0-.82.38-2.27-.19-2.5-1.12-.45-1.79.79-2.23,1.51-.66,1.1-1.25,2.26-1.86,3.4-.31.58-.64,1.26-1.42,1s-.78-1.07-.67-1.81c.19-1.27.47-2.26.72-3.65.07-.46.33-1.62-.33-1.93s-1.17.66-1.52,1c-1,1-1.84,2.22-2.85,3.23-2.16,2.15-5.14,5.46-8.55,2.7a2.51,2.51,0,0,1-1-2.28,4.13,4.13,0,0,1,.89-2.18l-2,.45c-.07,2.7-1.23,4.35-3.09,5.09a4.71,4.71,0,0,1,2.07.82,13.88,13.88,0,0,1,5.88,7.2,21.75,21.75,0,0,1,1.17,12,17,17,0,0,1-4.91,8.4,20.9,20.9,0,0,1-10.5,5.76c-11.15,2.43-19.22-1.87-25.58-9.81a11.34,11.34,0,0,1-1.86-3.79Zm23.73-28a3.56,3.56,0,0,0-3.37,2.28,2.06,2.06,0,0,0,.28,2.37,1.5,1.5,0,0,0,2.11-.32A4.43,4.43,0,0,0,147.67,94Zm18.84,1a.58.58,0,0,0-.78,0c-1.43,1.26-2,2.84-1.16,3.57s2.78.29,4-1.51a.58.58,0,0,0-.24-.84A9,9,0,0,1,166.51,95Zm3.12.11c.65-1.52-.42-3.21-2.81-1.09A6.93,6.93,0,0,0,169.63,95.11Z"/><path class="cls-1" d="M104.39,103.53c-2.44,1.26-4.2-.4-6.35-1.52-.35.57-.69,1.17-1.08,1.74a3.44,3.44,0,0,1-4.06,1.62,3.61,3.61,0,0,1-2.22-4c0-.55.17-1.1.3-1.86a6,6,0,0,0-3.27,1.82,10.44,10.44,0,0,1,.68,1.55A14.27,14.27,0,0,1,89,106c.06,1.92-.65,2.89-2,3.09a3.72,3.72,0,0,1-3.91-2.4,5.33,5.33,0,0,1,.07-2.51,15.36,15.36,0,0,1,1.21-2.53c-1-1.3-1.82-1.67-4.19-2a12.32,12.32,0,0,0,.07,2,26.08,26.08,0,0,1,.23,3.62c-.28,2.65-2.27,3.85-4.78,3.07-.41-.13-.8-.33-1.32-.55-.31.43-.63.89-1,1.33a4.29,4.29,0,0,1-4.77,1.64,4.05,4.05,0,0,1-2.61-3.85c0-.64,0-1.28,0-2.12l-3.41,1.84a5.78,5.78,0,0,1,1-2.13,14.66,14.66,0,0,1,6.88-4.6c1.32-.44,2-.08,2.69,1.15.45.81.64,1.76,1.09,2.57a10.06,10.06,0,0,0,1.81,2.58,1.36,1.36,0,0,0,2.29-.88,9.2,9.2,0,0,0,0-2.77c-.14-1.06-.48-2.09-.68-3.15-.28-1.43.19-2,1.65-2A8.77,8.77,0,0,1,84.61,99c1.35,1,2.28.71,3.6-.12a45.25,45.25,0,0,1,6.51-3.31c2-.88,3-.47,3.61,1.61.69,2.46,2.32,3.66,4.62,4.8.59.3,1.64.68,2.18,1A4.25,4.25,0,0,1,104.39,103.53Zm-32.88-1.29c-2.39,1.11-3.53,2.85-3.11,4.79.14.61.52,1.49,1.15,1.6a2.11,2.11,0,0,0,1.87-.6,3.17,3.17,0,0,0,.89-2.52A9.64,9.64,0,0,0,71.51,102.24Zm24.26-4.48c-2.06.74-3,1.36-3.14,3.69-.08,1.12.34,1.55.84,1.69a2.07,2.07,0,0,0,2.08-.82C96.36,101,96.25,99.55,95.77,97.76ZM86.25,103c-1.14,1.08-1.35,2-1,3,.12.36.56.9,1.08.85s.68-.77.64-1.12A18.38,18.38,0,0,0,86.25,103Z"/><path class="cls-1" d="M117.82,93c.13-.41.2-.84.34-1.24.25-.72.69-1.32,1.56-1.17s1.07.86,1,1.64a6.21,6.21,0,0,1-.26,1.48c-.84,2.58-1.65,5.18-2.59,7.73-.72,2-1.93,2.22-3.3.64a22.36,22.36,0,0,1-2.18-3.18c-.92-1.54-1.76-3.12-2.61-4.69a3.88,3.88,0,0,1-.55-1.38,1.16,1.16,0,0,1,.41-1.09,1.13,1.13,0,0,1,1.35,0,7,7,0,0,1,1.28,1.69c1.2,2,2.35,3.93,3.53,5.9C116.48,97.27,117.16,95.14,117.82,93Z"/><path class="cls-1" d="M125.39,87.86c.78.14,1.21.56,1.09,1.32a1.05,1.05,0,0,1-1.36.95,1.65,1.65,0,0,1-.91-1.17C124.14,88.25,124.7,87.87,125.39,87.86Z"/><path class="cls-2" d="M124.54,120.51c1.51,1.32,3,2.71,4.56,3.93a68.26,68.26,0,0,0,7.31,5.3c7.24,4.18,17.89,2.94,24.1-2.92,4.14-3.91,5.83-8.47,4.67-14a20.53,20.53,0,0,0-1.88-5.7,14.38,14.38,0,0,0-8.53-6.67c-1.37-.39-1.57-.61-1.81-1.17l1.11-.27c.7-.18,1.24-.36,1.93-.54a4,4,0,0,0,2.43-5.89,1.39,1.39,0,0,0-2-.57,13.93,13.93,0,0,0-2.2,2.27,6.5,6.5,0,0,1-3.4,2.35c-.47.1-1,.94-1.46,1.47a4.15,4.15,0,0,1-2.23,1.38c-2.75.62-4.82-1.58-4.45-4.37a3.76,3.76,0,0,1,.1-.55,6.39,6.39,0,0,0-1.81.53c-1.49.6-2.08.87-1.91,2.78,0,.39.07,1,.15,2,0,.37.12,1.32,0,1.33a1.78,1.78,0,0,1-1.58-1,8.33,8.33,0,0,1-.68-2.46c-.18-1.34-.22-2.7-.32-4-2.38-.1-2.33-.08-3,1.88-.81,2.24-1.59,4.48-3.49,5.51a1.48,1.48,0,0,1-1.73-.08,7.45,7.45,0,0,1-2.67-3.5c-.54.71-.92,1.3-1.39,1.8A7.53,7.53,0,0,1,122.2,101a2.6,2.6,0,0,1-2.54-.09s1.06-1.17,1.8-1.8a9.63,9.63,0,0,0,3-6.1,2.63,2.63,0,0,1,.4-1.2,1.49,1.49,0,0,1,1.06-.54,1.38,1.38,0,0,1,.93.73,7.71,7.71,0,0,1,.35,1.68c.35,1.7,1,4.53,2.26,4.65,1.12.09,1.8-2.47,2.25-4.06h0a19.56,19.56,0,0,1-1.89-1,2.26,2.26,0,0,1-.86-2.68,1.93,1.93,0,0,1,3.45-.5c1.12,1.69,2.34,1.56,3.85,1a6.56,6.56,0,0,1,1.24-.37c1-.16,1.52.21,1.62,1.21.07.7,0,1.41,0,2.37.14-.22.44-.36,1.43-.87a48.58,48.58,0,0,1,7.3-3.38c1.71-.54,2.55,0,3,1.77a15.29,15.29,0,0,1,.2,2.7,6.65,6.65,0,0,0,1.91-2,5.88,5.88,0,0,1,5.37-2.92,1.37,1.37,0,0,1,1.12.61,8.55,8.55,0,0,1,1.76,3.62h0c1.41-.33,2.83-1.91,4.24-2.73A10.41,10.41,0,0,1,168,90c1.87-.46,3.6-.29,4.72,1.78.4-.27.75-.47,1.06-.73,2.2-1.78,4.12-1.54,4.87.73a.58.58,0,0,0,.92.28l.33-.26a2.88,2.88,0,0,1,4.59,1.71c.14.75.12,1.54.19,2.3.08.93.16,1.86.28,2.79.13,1.09.48,2.35,1.61,2.67a7.24,7.24,0,0,0,1.45.26,2.44,2.44,0,0,1-2.42,1.16,2.68,2.68,0,0,1-2.36-1.62,11.45,11.45,0,0,1-.9-5.27c0-.81.38-2.27-.19-2.49-1.12-.45-1.79.78-2.22,1.5-.67,1.11-1.25,2.27-1.86,3.41-.32.58-.64,1.26-1.43,1s-.78-1.08-.67-1.81c.19-1.28.48-2.26.72-3.65.08-.46.33-1.62-.33-1.93s-1.17.66-1.52,1c-1,1-1.84,2.22-2.85,3.23-2.16,2.16-5.14,5.46-8.55,2.71a2.54,2.54,0,0,1-1-2.29,4.21,4.21,0,0,1,.89-2.17l-2,.45c-.08,2.7-1.23,4.34-3.09,5.09a4.63,4.63,0,0,1,2.06.82,13.78,13.78,0,0,1,5.88,7.19A21.69,21.69,0,0,1,167.39,120a16.93,16.93,0,0,1-4.91,8.4,20.94,20.94,0,0,1-10.5,5.76c-11.15,2.42-19.22-1.88-25.58-9.81a11.54,11.54,0,0,1-1.86-3.79Zm23.74-28a3.54,3.54,0,0,0-3.37,2.28,2,2,0,0,0,.28,2.37,1.49,1.49,0,0,0,2.1-.32A4.43,4.43,0,0,0,148.28,92.54Zm18.84,1a.61.61,0,0,0-.79,0c-1.43,1.25-2,2.84-1.16,3.57s2.79.29,4-1.51a.59.59,0,0,0-.23-.85A8.23,8.23,0,0,1,167.12,93.58Zm3.12.12c.64-1.52-.42-3.21-2.82-1.09A6.91,6.91,0,0,0,170.24,93.7Z"/><path class="cls-2" d="M105,102.12c-2.44,1.26-4.2-.4-6.35-1.52-.35.57-.68,1.17-1.07,1.74A3.47,3.47,0,0,1,93.5,104a3.61,3.61,0,0,1-2.22-4c.06-.56.18-1.11.3-1.86a6,6,0,0,0-3.27,1.82,10.52,10.52,0,0,1,.69,1.55,14.25,14.25,0,0,1,.63,3.13c.06,1.92-.65,2.89-2,3.08a3.73,3.73,0,0,1-3.91-2.39,5.33,5.33,0,0,1,.07-2.51A14.65,14.65,0,0,1,85,100.24c-1.06-1.3-1.83-1.68-4.2-2a13.4,13.4,0,0,0,.07,2,26.22,26.22,0,0,1,.23,3.63c-.28,2.64-2.27,3.85-4.78,3.07-.41-.13-.8-.33-1.32-.55-.31.43-.63.89-1,1.32a4.31,4.31,0,0,1-4.77,1.65,4.07,4.07,0,0,1-2.61-3.85c0-.64,0-1.28,0-2.13l-3.41,1.85a5.82,5.82,0,0,1,1-2.13,14.69,14.69,0,0,1,6.89-4.6c1.31-.44,2-.08,2.68,1.15.45.8.64,1.76,1.09,2.56a9.54,9.54,0,0,0,1.82,2.58,1.35,1.35,0,0,0,2.28-.87,8.88,8.88,0,0,0,0-2.77c-.15-1.06-.48-2.1-.69-3.15-.27-1.44.19-2,1.65-2a8.67,8.67,0,0,1,5.28,1.62c1.34,1,2.28.71,3.6-.13a45.18,45.18,0,0,1,6.51-3.3c2-.89,3-.48,3.6,1.61.7,2.46,2.33,3.66,4.62,4.8.6.29,1.65.68,2.18,1A3.9,3.9,0,0,1,105,102.12Zm-32.88-1.29c-2.39,1.1-3.52,2.84-3.1,4.79.13.61.51,1.48,1.14,1.59a2.1,2.1,0,0,0,1.87-.59,3.14,3.14,0,0,0,.89-2.52A9.41,9.41,0,0,0,72.11,100.83Zm24.27-4.48c-2.07.74-3,1.35-3.15,3.69-.07,1.11.35,1.55.84,1.69a2.08,2.08,0,0,0,2.08-.82C97,99.58,96.85,98.14,96.38,96.35Zm-9.53,5.19c-1.13,1.08-1.34,2-1,3,.13.37.56.9,1.08.85s.68-.77.65-1.11A18.59,18.59,0,0,0,86.85,101.54Z"/><path class="cls-2" d="M118.43,91.6c.12-.41.19-.84.33-1.24.26-.73.69-1.32,1.56-1.17s1.08.86,1,1.64a6.13,6.13,0,0,1-.26,1.47c-.83,2.59-1.65,5.18-2.58,7.73-.73,2-1.94,2.23-3.31.65A23.22,23.22,0,0,1,113,97.5c-.91-1.54-1.75-3.12-2.61-4.69a4,4,0,0,1-.55-1.38,1.18,1.18,0,0,1,.41-1.09,1.13,1.13,0,0,1,1.35,0,6.38,6.38,0,0,1,1.28,1.69c1.2,2,2.36,3.93,3.54,5.9Z"/><path class="cls-2" d="M126,86.44c.78.15,1.21.57,1.09,1.32a1,1,0,0,1-1.36.95,1.62,1.62,0,0,1-.91-1.16C124.74,86.84,125.3,86.45,126,86.44Z"/></svg>