<svg id="Capa_1" data-name="Capa 1" xmlns="http://www.w3.org/2000/svg" viewBox="0 0 511.99 511.99"><defs><style>.cls-1{fill:#e77d42;}</style></defs><path class="cls-1" d="M392.53,59.72V26.82a27.76,27.76,0,0,0-10.2-21.77A22.94,22.94,0,0,0,362.63.63L117.7,59.9A25.55,25.55,0,0,0,93.86,85.32V486.39a25.64,25.64,0,0,0,25.6,25.6H392.53a25.64,25.64,0,0,0,25.6-25.6V85.32A25.64,25.64,0,0,0,392.53,59.72Zm-25.89-42.5a5.91,5.91,0,0,1,5.14,1.24,10.57,10.57,0,0,1,3.68,8.36v32.9H191Zm34.42,469.17a8.54,8.54,0,0,1-8.53,8.53H119.46a8.54,8.54,0,0,1-8.53-8.53V85.32a8.53,8.53,0,0,1,8.53-8.53H392.53a8.54,8.54,0,0,1,8.53,8.53V486.39Z"/><path class="cls-1" d="M298.66,364.93a25.63,25.63,0,0,0,25.6-25.6V236.93a17.09,17.09,0,0,0,17.07-17.07v-51.2c0-37.3-19.19-63.2-50.09-67.59l-8.45-1.2a8.54,8.54,0,0,0-9.73,8.45v231A25.64,25.64,0,0,0,298.66,364.93Zm-8.53-246.76c30.77,5.22,34.13,37,34.13,50.49v51.2h-8.53a8.53,8.53,0,0,0-8.54,8.53V339.32a8.53,8.53,0,1,1-17.06,0V118.17Z"/><path class="cls-1" d="M187.73,206.73v132.6a25.6,25.6,0,1,0,51.2,0V206.73A34,34,0,0,0,256,177.19V108.93a8.53,8.53,0,1,0-17.06,0v42.66a8.54,8.54,0,1,1-17.07,0V108.93a8.53,8.53,0,1,0-17.06,0v42.66a8.54,8.54,0,1,1-17.07,0V108.93a8.54,8.54,0,1,0-17.07,0v68.26A34,34,0,0,0,187.73,206.73Zm0-31.11a24.81,24.81,0,0,0,25.6-5.09,24.77,24.77,0,0,0,25.6,5.09v1.57a16.84,16.84,0,0,1-11.29,16,8.52,8.52,0,0,0-5.78,8.07V339.33a8.54,8.54,0,0,1-17.07,0V201.25a8.53,8.53,0,0,0-5.77-8.07,16.82,16.82,0,0,1-11.29-16v-1.57Z"/><path class="cls-1" d="M170.66,433.19H290.13a8.53,8.53,0,1,0,0-17.06H170.66a8.53,8.53,0,1,0,0,17.06Z"/><path class="cls-1" d="M341.33,416.13H324.26a8.53,8.53,0,1,0,0,17.06h17.07a8.53,8.53,0,1,0,0-17.06Z"/><path class="cls-1" d="M341.33,450.26H273.06a8.53,8.53,0,0,0,0,17.06h68.27a8.53,8.53,0,1,0,0-17.06Z"/><path class="cls-1" d="M238.93,450.26h-8.54a8.53,8.53,0,1,0,0,17.06h8.54a8.53,8.53,0,0,0,0-17.06Z"/><path class="cls-1" d="M196.26,450.26h-25.6a8.53,8.53,0,1,0,0,17.06h25.6a8.53,8.53,0,0,0,0-17.06Z"/></svg>