<svg id="Capa_1" data-name="Capa 1" xmlns="http://www.w3.org/2000/svg" viewBox="0 0 511.99 511.99"><defs><style>.cls-1{fill:#e77d42;}</style></defs><path class="cls-1" d="M88.15,451.37a190.07,190.07,0,0,0,65.35,11.3,218.32,218.32,0,0,0,71.43-12.3c46.14-16.05,84.45-45.92,107.88-84.1,23.74-38.69,29.41-81.28,16-119.92a22.4,22.4,0,0,0-.9-2.16,27.89,27.89,0,0,0,23.53,4.13l127-61.62a24,24,0,0,0,11.23-32c-.05-.12-.11-.23-.16-.34l-1.88-3.75a24,24,0,0,0-31.33-11.14l-119.58,54.6A28.22,28.22,0,0,0,336,221.32a27.93,27.93,0,0,0,1.6,9.32l-2.35,1.57c-31.39-15.7-107.52-3.05-178.65,21.7q-6.27,2.18-12.5,4.49c-7.86-29.12,12.48-50.32,13.59-51.44l-11.34-11.29a77.33,77.33,0,0,0-17,29.27,66.6,66.6,0,0,0-.32,39.26c-12.8,5.11-25.1,10.51-36.74,16.13-6.45-24-7-48.69-6.15-66.56A27.09,27.09,0,1,0,32,211.19c0,.41,0,.82,0,1.23V269a4.31,4.31,0,0,1-4.32,4.32A20.33,20.33,0,0,0,7.35,293.63v.13a129.23,129.23,0,0,0,6.86,38.12C2,345-2.4,356.87,1.2,367.24c13.45,38.64,44.32,68.52,87,84.13Zm131.52-16.12c-42.66,14.84-87.41,15.23-126,1.09-28.52-10.44-51.1-27.9-65.6-50.33a123.76,123.76,0,0,0,25.4,2.28q7.35,0,15.7-.57c27.58-1.89,60.78-8.47,95.62-18.82.7.12,19.77-6.13,28.62-9.21a618.66,618.66,0,0,0,59.36-24.05l.41-.19c20.93-9.85,39.65-20.32,55-30.88q20.67-14.18,31.14-26.82c6,63.89-42.78,130.75-119.68,157.5Zm83.29-161c-1.69,14.34-4.49,17.29-4.61,17.41l.15.16c-6.62,4.51-13.88,9-21.7,13.44A103.35,103.35,0,0,0,287,272.32a8,8,0,0,1,16,1,7.26,7.26,0,0,1-.06.93ZM482.86,154a8,8,0,0,1,10.42,3.72l1.88,3.75a8,8,0,0,1-3.58,10.73l-.15.08L392,220.73A27.92,27.92,0,0,0,382.14,200ZM364,209.32a12,12,0,0,1,7.34,21.48l-4.4,2.14a11.51,11.51,0,0,1-4.37.29l1.88-1.25a8,8,0,0,0-8.75-13.4l-.13.08L352,221a12,12,0,0,1,12-11.71ZM145.86,294.44l12.29-10.24a81.32,81.32,0,0,1-7.8-11.06q5.73-2.11,11.5-4.12c43.75-15.22,86.4-24.87,120.08-27.18,15.68-1.08,28.89-.45,38.2,1.81,7.58,1.84,12.39,4.66,13.53,8s-.87,8.49-5.67,14.63a83.72,83.72,0,0,1-9.13,9.7,24,24,0,0,0-47.72-5.77c-4.06,29.91-21.74,47.34-26.67,51.68a604.33,604.33,0,0,1-56.34,22.73q-12.24,4.26-24.32,7.92c-31.6-6.1-53.95-25.2-66.46-56.85,11.93-5.82,24.64-11.41,37.88-16.7a96,96,0,0,0,10.63,15.49ZM24.6,290.6a4.34,4.34,0,0,1,3.08-1.28A20.34,20.34,0,0,0,48,269V212.42a11.1,11.1,0,1,1,22.2,0c0,.18,0,.37,0,.55-1.14,23.25,0,57.44,12.21,88.35,7,17.8,16.91,32.44,29.45,43.53a96.39,96.39,0,0,0,23.84,15.43A411,411,0,0,1,80,370.66l-6.68-1.23c-17.87-3-31.44-14.27-40.33-33.55a111.46,111.46,0,0,1-9.63-42.22,4.22,4.22,0,0,1,1.24-3.06ZM16.32,362c-1.11-3.18.72-8,5-13.73a76.71,76.71,0,0,0,19,23.38,75.35,75.35,0,0,1-10.45-1.7c-7.58-1.83-12.38-4.66-13.53-7.95Z"/><path class="cls-1" d="M72,105.32a24,24,0,1,0,24,24A24,24,0,0,0,72,105.32Zm0,32a8,8,0,1,1,8-8A8,8,0,0,1,72,137.32Z"/><path class="cls-1" d="M152,73.32a24,24,0,1,0-24,24A24,24,0,0,0,152,73.32Zm-32,0a8,8,0,1,1,8,8A8,8,0,0,1,120,73.32Z"/><path class="cls-1" d="M104,161.32h16v16H104Z"/><path class="cls-1" d="M96,233.32h16v16H96Z"/><path class="cls-1" d="M144,305.32h16v16H144Z"/><path class="cls-1" d="M16,153.32H32v16H16Z"/><path class="cls-1" d="M83.57,368l8.87-13.32c-19.55-13-20.41-25-20.44-25.55a1.11,1.11,0,0,1,0,.21H56c0,2.08.78,20.8,27.57,38.66Z"/><path class="cls-1" d="M162.49,125a102.2,102.2,0,0,1,11.18-14L162.35,99.66c-1.08,1.08-26.35,26.66-26.35,53.66h16C152,145.16,155.63,135.37,162.49,125Z"/></svg>