<svg id="Capa_1" data-name="Capa 1" xmlns="http://www.w3.org/2000/svg" viewBox="0 0 511.99 511.99"><defs><style>.cls-1{fill:#e77d42;}</style></defs><path class="cls-1" d="M256,16C123.66,16,16,123.66,16,256S123.66,496,256,496,496,388.33,496,256,388.33,16,256,16Zm0,464C132.48,480,32,379.51,32,256S132.48,32,256,32,480,132.48,480,256,379.51,480,256,480Z"/><path class="cls-1" d="M122.88,117.76l-11.09-11.53c-4.85,4.68-9.52,9.62-13.87,14.71l12.15,10.41C114.09,126.64,118.41,122.07,122.88,117.76Z"/><path class="cls-1" d="M48.65,239.36l15.95,1.27a191.26,191.26,0,0,1,34.63-95.37L86.17,136A207.36,207.36,0,0,0,48.65,239.36Z"/><path class="cls-1" d="M368,98.63a34.63,34.63,0,0,0-68.44-7.51c-1.35,6.08-2.44,12.22-3.55,18.35a148.12,148.12,0,0,0-40-5.32V64H240v96a40.15,40.15,0,0,1-8,24,39.21,39.21,0,0,1-8.22,8.15c-9.91,7.31-15.57,19.53-15.11,32.73L216,408.28a15.08,15.08,0,0,1-4.27,11.08,15.57,15.57,0,0,1-21.85,0,15.12,15.12,0,0,1-4.27-11.1l5.73-183.44c.45-13.15-5.2-25.36-15.13-32.68A39.89,39.89,0,0,1,168,184a40.31,40.31,0,0,1-8-24V64H144v89.5a151.51,151.51,0,0,0,26.45,227.93l-.82,26.32A31.19,31.19,0,1,0,232,409.86c0-.72,0-1.45,0-2.17L231.9,406a149.24,149.24,0,0,0,74.36-6.7l-.54,7.36a31.17,31.17,0,0,0,62.2,4.26c.05-.71.07-1.41.07-2.12V358.5a151.33,151.33,0,0,0,0-205ZM171.05,362a135.46,135.46,0,0,1-24.65-186.3A54.8,54.8,0,0,0,166.71,205c5.67,4.18,8.9,11.38,8.64,19.28Zm136.5,19.61a130.09,130.09,0,0,1-76.31,7.83l-6.6-165.2c-.26-7.88,3-15.08,8.63-19.26A56,56,0,0,0,256,160V120.13a132.47,132.47,0,0,1,37.39,5.22,486.84,486.84,0,0,0-5.39,71V280a8,8,0,0,0,8,8h18.43ZM352,408.82a15.17,15.17,0,0,1-30.34,0q0-.51,0-1L331,280.58a8,8,0,0,0-7.39-8.57l-.59,0H304V196.38a470.48,470.48,0,0,1,11.18-101.8,18.63,18.63,0,0,1,36.82,4ZM392,256a134.93,134.93,0,0,1-24,76.9V179.09A135,135,0,0,1,392,256Z"/><path class="cls-1" d="M176,64h16v88H176Z"/><path class="cls-1" d="M208,64h16v88H208Z"/></svg>