<svg id="Capa_1" data-name="Capa 1" xmlns="http://www.w3.org/2000/svg" viewBox="0 0 511.99 511.99"><defs><style>.cls-1{fill:#e77d42;}</style></defs><path class="cls-1" d="M232,359.59V264a8,8,0,0,0-8-8c-48.86,0-55.71,83.84-56,87.4a8,8,0,0,0,4.4,7.76L184,356.94v2.66l-6.2,62a24,24,0,0,0,21.5,26.26,23.71,23.71,0,0,0,2.38.12h12.64a24,24,0,0,0,24-24,23.71,23.71,0,0,0-.12-2.38Zm-47.45-20.27a176.29,176.29,0,0,1,7.37-33c6.15-18.09,14.22-29.1,24.08-32.85V352H200a8,8,0,0,0-4.42-7.15Zm35.7,90a7.88,7.88,0,0,1-5.93,2.63H201.67a8,8,0,0,1-8-8c0-.26,0-.53,0-.8l5.52-55.2h17.52l5.52,55.2a7.92,7.92,0,0,1-2,6.17Z"/><path class="cls-1" d="M488,8H424a8,8,0,0,0-8,8v8H249a43.36,43.36,0,0,0-20.7,5.28L150,72H56c-13.45,0-24,14.06-24,32,0,16.75,9.19,30.1,21.35,31.81L17.28,257.9a2,2,0,0,0-.09.33,39.71,39.71,0,0,0-1.2,9.7V496a8,8,0,0,0,8,8H384a8,8,0,0,0,8-8V268.6a40,40,0,0,0-1.62-11.29L357,144a43.27,43.27,0,0,0,42.83-40H416v16a8,8,0,0,0,8,8h64a8,8,0,0,0,8-8V16A8,8,0,0,0,488,8ZM48,104c0-9.76,4.74-16,8-16H284.68l-32,32H56C52.73,120,48,113.76,48,104Zm249.2,154.24a39.71,39.71,0,0,0-1.2,9.7V488H32V267.93a24.09,24.09,0,0,1,.68-5.67L70,136H238.21a35.25,35.25,0,0,0,51.9,45.83l38.48-29.94-31.31,106A1.68,1.68,0,0,0,297.19,258.23ZM344,467.31,364.68,488H323.31Zm31-205.48a23.88,23.88,0,0,1,1,6.77V476.68l-24-24V280a8,8,0,0,0-16,0V452.68l-24,24V267.93a24.09,24.09,0,0,1,.68-5.67l31.3-106ZM416,88H396.77A12.8,12.8,0,0,0,384,100.77,27.24,27.24,0,0,1,356.77,128H337.1a11.3,11.3,0,0,0-6.89,2.37l-49.93,38.83a19.23,19.23,0,0,1-25.4-28.77l54.77-54.77A8,8,0,0,0,304,72H183.37l52.57-28.67A27.36,27.36,0,0,1,249,40H416Zm64,24H432V24h48Z"/><path class="cls-1" d="M160,264a8,8,0,0,0-16,0v24H128V264a8,8,0,0,0-16,0v24H96V264a8,8,0,0,0-16,0v32h0a7.94,7.94,0,0,0,.83,3.58l15,30-6.62,92.67a24,24,0,0,0,22.23,25.65q.86.06,1.71.06h13.63a24,24,0,0,0,24-24q0-.86-.06-1.71l-6.62-92.67,15-30A8.07,8.07,0,0,0,160,296h0Zm-20.94,40-8,16H108.94l-8-16Zm-6.38,125.45a7.92,7.92,0,0,1-5.86,2.55H113.18a8,8,0,0,1-8-8,5.43,5.43,0,0,1,0-.57L111.44,336h17.1l6.25,87.43A7.91,7.91,0,0,1,132.67,429.44Z"/></svg>